<svg width="91" height="111" viewBox="0 0 91 111" fill="none" xmlns="http://www.w3.org/2000/svg">
<path fill-rule="evenodd" clip-rule="evenodd" d="M41.7253 44.2121C41.712 44.6157 41.7734 45.0354 41.8349 45.4543C42.0333 47.6856 42.2279 50.2796 43.1624 52.3741C44.4174 55.1272 46.2225 56.4912 48.2384 56.9277C51.0761 57.5398 54.4551 56.1112 56.8926 53.6558C59.3241 51.2265 60.8753 47.8453 60.4072 44.7319C60.1072 42.6028 58.848 40.5584 56.2243 39.0039C53.2599 37.2248 50.0103 37.3918 46.9076 38.6371C45.7067 39.0961 44.6229 39.7305 43.5196 40.4498C43.5716 39.1856 43.626 37.9094 43.6846 36.6161C44.0123 32.4127 44.8339 28.1029 45.9884 24.0528C47.4434 18.6789 49.7393 13.7434 52.9633 9.20356C53.2175 8.77403 53.1143 8.19287 52.7106 7.9007C52.3068 7.60927 51.7356 7.71147 51.4069 8.12408C48.0636 12.8444 45.6467 17.967 44.1433 23.554C43.0362 27.7402 42.1125 32.1568 41.8324 36.4956C41.7367 38.2974 41.6481 40.0672 41.6385 41.8346C39.4239 43.6536 37.5259 45.8022 36.233 47.702C27.8506 60.4715 30.3635 80.8 34.1974 94.9659C34.3204 95.4591 34.8041 95.7459 35.3042 95.6135C35.8044 95.4803 36.078 94.9651 35.955 94.4719C32.2524 80.7627 29.6692 61.0865 37.8007 48.7316C38.7573 47.2787 40.1397 45.6757 41.7253 44.2121ZM43.5509 42.7278C43.5189 43.5587 43.5622 44.4012 43.6809 45.2585C43.9187 47.3162 44.0061 49.6908 44.8258 51.601C45.7643 53.6776 47.0828 54.7736 48.576 55.0969C50.9654 55.6135 53.6075 54.3255 55.5484 52.3323C57.5694 50.3307 58.9765 47.5842 58.544 45.0037C58.293 43.3487 57.311 41.8074 55.3112 40.61C52.8261 39.1348 50.1192 39.3287 47.612 40.3661C46.1527 40.9285 44.7894 41.758 43.5509 42.7278Z" fill="white"/>
<path fill-rule="evenodd" clip-rule="evenodd" d="M35.9743 103.55C35.7285 103.277 35.5059 102.901 35.2835 102.525C34.8333 101.797 34.4496 101.046 34.0567 100.607C31.7116 97.9214 28.8659 94.7298 25.7727 92.8986C25.449 92.6976 24.9925 92.8101 24.7904 93.1582C24.5884 93.5057 24.6726 93.9477 25.0549 94.1619C27.9822 95.91 30.6701 98.9857 32.9754 101.576C33.3621 102.041 33.833 102.949 34.2799 103.691C34.6893 104.329 35.1226 104.861 35.6154 105.13C35.8842 105.302 36.4377 105.305 36.9386 104.725C37.619 103.897 38.6182 101.396 38.7338 101.158C39.8968 98.7467 40.9904 96.6409 43.5796 95.5395C43.9249 95.3748 44.0847 94.9413 43.9812 94.5836C43.8192 94.2125 43.3667 94.0359 43.0214 94.2013C40.0884 95.461 38.6996 97.7823 37.3972 100.536C37.3552 100.721 36.769 102.219 36.1731 103.217C36.0881 103.32 36.0589 103.448 35.9743 103.55Z" fill="white"/>
</svg>
