<svg width="231" height="120" viewBox="0 0 231 120" fill="none" xmlns="http://www.w3.org/2000/svg">
<path d="M113.26 0.617188C118.221 0.617188 123.263 0.781388 128.306 1.10725C130.673 1.27427 133.027 1.46979 135.296 1.68534C136.757 1.81004 138.102 2.04929 139.315 2.39377C186.83 5.89869 223.206 25.633 229.986 51.6808C238.293 83.5938 194.664 113.665 132.732 118.714C127.287 119.158 121.682 119.383 116.074 119.383C116.072 119.383 116.074 119.383 116.069 119.383C59.2179 119.383 9.82996 97.9633 1.19409 69.5594C-3.78548 53.1913 6.96796 35.2299 30.6897 20.2795C50.8091 7.59995 80.1367 0.617188 113.26 0.617188ZM106.597 15.2655C84.4956 16.1294 65.3085 21.2038 49.5347 30.3612C30.9789 41.1336 22.7 56.2781 27.93 69.8833C34.5822 87.2014 67.4469 104.733 117.377 104.733C123.172 104.733 128.878 104.453 134.331 103.897C180.23 99.2312 211.264 75.7686 203.513 51.5902C196.862 30.8569 163.934 16.3768 123.43 16.3768C120.697 16.3768 117.92 16.4448 115.179 16.5794C111.806 16.7438 108.916 16.2704 106.597 15.2655Z" fill="#F9FE00"/>
</svg>
