<svg width="50" height="46" viewBox="0 0 50 46" fill="none" xmlns="http://www.w3.org/2000/svg">
<path d="M19.456 45.0793C29.9548 45.0793 38.4658 36.5683 38.4658 26.0694C38.4658 15.5706 29.9548 7.05957 19.456 7.05957C8.95715 7.05957 0.446152 15.5706 0.446152 26.0694C0.446152 36.5683 8.95715 45.0793 19.456 45.0793Z" fill="#B0EF8F"/>
<path d="M19.671 40.7626L19.4298 40.3517C15.7468 34.0765 5.95947 20.7595 5.86061 20.6257L5.71942 20.4339L9.0539 17.1385L19.609 24.5089C26.2548 15.885 32.4549 9.9617 36.4992 6.50273C40.9233 2.71896 43.8031 0.977035 43.8322 0.960343L43.8976 0.921143H49.5539L49.0136 1.40231C35.1181 13.779 20.0569 40.0843 19.9069 40.3486L19.671 40.7626Z" fill="#009045"/>
</svg>
