<svg width="69" height="51" viewBox="0 0 69 51" fill="none" xmlns="http://www.w3.org/2000/svg">
<path fill-rule="evenodd" clip-rule="evenodd" d="M60.8236 44.8014C13.1829 39.5899 1.01058 3.39736 1.01058 3.39736C0.676537 2.41175 1.2038 1.33971 2.19018 1.00429C3.17548 0.669169 4.24783 1.19751 4.58325 2.18388C4.58325 2.18388 16.6149 37.1862 63.3898 41.2631C61.5989 38.9774 59.5717 36.9816 57.6598 34.7999C56.974 34.0166 57.0519 32.8243 57.835 32.1375C58.6184 31.4517 59.8109 31.5307 60.4974 32.3127C62.6264 34.7433 64.8875 36.9578 66.8377 39.5587C67.034 39.8206 68.6445 42.0023 68.8397 42.5775C69.18 43.5811 68.7431 44.2458 68.4475 44.5677C67.4341 45.6716 66.0093 46.5725 64.4405 47.3301C62.4405 48.2962 60.1973 49.0314 58.5783 49.845C57.6479 50.3117 56.5137 49.9367 56.0459 49.0066C55.5791 48.0761 55.9549 46.9405 56.8853 46.4738C57.9992 45.9142 59.4018 45.3872 60.8236 44.8014Z" fill="#FAFF00"/>
</svg>
