<svg width="26" height="26" viewBox="0 0 26 26" fill="none" xmlns="http://www.w3.org/2000/svg">
<path d="M10.426 23.251C15.3004 23.251 19.252 19.2995 19.252 14.425C19.252 9.55053 15.3004 5.599 10.426 5.599C5.55151 5.599 1.59998 9.55053 1.59998 14.425C1.59998 19.2995 5.55151 23.251 10.426 23.251Z" fill="#B0EF8F"/>
<path d="M10.5258 21.2468L10.4138 21.0561C8.70383 18.1426 4.15973 11.9597 4.11383 11.8976L4.04828 11.8085L5.59643 10.2785L10.497 13.7005C13.5826 9.69652 16.4612 6.94642 18.3389 5.34047C20.3929 3.58372 21.73 2.77497 21.7435 2.76722L21.7739 2.74902H24.4L24.1491 2.97242C17.6977 8.71872 10.705 20.9319 10.6353 21.0546L10.5258 21.2468Z" fill="#009045"/>
</svg>
