<svg width="30" height="63" viewBox="0 0 30 63" fill="none" xmlns="http://www.w3.org/2000/svg">
<path d="M21.4774 62.102C23.8534 57.16 25.8492 52.123 29.6507 48.1314C30.411 47.2761 29.8407 46.2307 28.7953 46.1355C26.4194 45.8504 24.1385 45.7553 21.8576 45.7553C23.2831 41.1937 22.3328 35.0162 22.7129 30.6444C23.3782 21.3307 25.469 12.017 25.1839 2.70329C25.1839 1.84795 24.1385 1.18269 23.3782 1.65788C19.6717 4.12886 16.6305 7.2651 13.3992 10.2113C9.50252 7.07502 6.2714 3.36856 2.27982 0.327351C1.42448 -0.337913 0.188992 0.0422376 0.093954 1.18269C-1.14154 17.244 10.1679 31.4047 12.8291 46.8008C9.97802 46.5156 7.12674 46.6107 4.27576 46.7057C3.32538 46.7057 2.75516 47.9412 3.42027 48.7017C8.55245 53.8337 13.8744 58.5854 19.8618 62.6722C20.432 62.8623 21.1923 62.5772 21.4774 62.102ZM2.47005 3.65382C5.60614 6.31488 8.74253 9.16601 12.2588 11.2568C12.1639 11.8271 12.8292 12.4923 13.4943 12.1122C16.7257 9.92631 19.5767 7.26525 22.7129 4.88931C22.6179 12.3022 21.2873 19.6201 20.527 27.0331C19.7667 33.7808 19.3866 40.9086 19.1965 47.7513C19.1965 48.6066 20.337 48.8917 20.8122 48.2265C20.9072 48.1316 20.9072 48.0364 21.0022 47.9414C22.903 47.9414 24.8037 48.0364 26.6095 48.2265C23.8534 51.743 22.0476 55.7346 20.1469 59.8211C15.49 56.4948 11.2134 52.7883 7.12674 48.8917C9.50283 48.7967 11.8788 48.6066 14.2546 48.7017C14.8248 48.7017 15.1099 48.2263 15.1099 47.7513C15.395 47.5612 15.5851 47.2761 15.49 46.8009C13.7794 31.785 2.65997 18.7648 2.47005 3.65382Z" fill="#FAFF00"/>
</svg>
