<svg width="74" height="43" viewBox="0 0 74 43" fill="none" xmlns="http://www.w3.org/2000/svg">
<path fill-rule="evenodd" clip-rule="evenodd" d="M8.70253 37.186C56.624 37.7592 73.0731 3.29922 73.0731 3.29922C73.5236 2.3611 73.1295 1.23328 72.1908 0.781333C71.2531 0.329812 70.1249 0.724944 69.6729 1.66365C69.6729 1.66365 53.507 34.9591 6.58189 33.3641C8.63539 31.3111 10.8885 29.5744 13.0497 27.6393C13.8249 26.9443 13.8914 25.7514 13.1969 24.9751C12.502 24.1998 11.3086 24.1344 10.5328 24.8279C8.12612 26.984 5.61445 28.9095 3.36473 31.2563C3.13826 31.4925 1.27636 33.464 1.01326 34.0115C0.554388 34.9667 0.907855 35.6793 1.16249 36.0345C2.03532 37.2525 3.34106 38.3187 4.80707 39.26C6.67588 40.4604 8.81401 41.4607 10.323 42.4636C11.1904 43.0392 12.3615 42.8037 12.9381 41.9368C13.5137 41.0695 13.2776 39.8969 12.4103 39.3213C11.3721 38.6315 10.0433 37.9391 8.70253 37.186Z" fill="#FAFF00"/>
</svg>
